<?xml version="1.0" standalone="no"?>
<!DOCTYPE svg PUBLIC "-//W3C//DTD SVG 1.1//EN" "http://www.w3.org/Graphics/SVG/1.1/DTD/svg11.dtd">
<svg version="1.1" viewBox="0 0 2048 1153" width="2048" height="1153" xmlns="http://www.w3.org/2000/svg">
<path transform="translate(686,277)" d="m0 0h38l22 3 21 5 18 6 23 10 37 7 26 6 16 6 12 8 16 13 13 10 21 16 19 14 18 14v2l-32 1-11 4-6 7-4 10-1 6-1 124-9-6-7-6v-2l-3-1-7-8-14-18-11-17-3-5-2-1v8l-5 25-6 18-10 23-5 12-2 14-3 26-5 24-7 20-10 19-10 13-9 10-9 8-15 10-17 8-18 5-14 2h-37l-24-4-17-5-21-10-12-9-12-11-10-12-9-16-5-11-7-24-5-29-2-21-6-12-8-13-7-15-4-17-2-24-10 20-9 14-9 12-8 8-7 4h-11l-6-3-2-4 1-6v-25l-3-14-5-13-10-18-12-19-11-19-6-14-2-8v-14l5-15 7-11 9-9 16-12 38-28 20-14 16-10 13-4h54l30-10 23-5zm115 151-7 4-4 7v9l4 6 5 4 3 1h7l6-3 6-7 1-9-3-6-6-5-2-1zm-196 4-6 4-4 6-1 8 4 8 5 4 2 1h10l7-4 4-6 1-5-3-9-7-6-2-1z" fill="#1E4744"/>
<path transform="translate(567,110)" d="m0 0 8 1 22 12 22 13 5 4 1 5-9 18 36 24 7-2 10 1 9 6 4 7 1 7-3 9-5 6-6 3h-12l-7-4-6-8-1-3v-8l1-6-33-21-3-1-2 6-7 12-3 3h-6l-12-6-15-9-21-12-4-4 1-5 2-6h-30l-20 3-20 6-16 8-13 8-14 11-13 13-13 17-12 22-3 7 9 2 4 3v9l-11 54-3 6-1 1h-9l-3-1v33l2 26 5 31 7 27 8 24 10 23 14 27 12 19 11 16 14 19 13 16 11 13 9 11 10 11 7 8 12 13 18 20 32 34 9 10 9 9 7 8 10 10 7 8 8 8 7 8 12 12 7 8 7 7 4-2 6-5 5 2 17 17 7 8 13 13 2 1 2-4 21-21 7-8 9-8 5 1 7 7 4-2 15-16 13-13 7-8 39-39 7-8 39-39 1-2h2l1-3h2l2-4 36-36 6-7 2 2v19l3 10 2 4-7 8-15 15-5 6h-2l-2 4-50 50-7 8-45 45-7 8-19 19 1 4 2 3-1 5-14 15-29 29-8 7-1 2-1 35-4 5-6 2v37l3 15 8 16 8 10 10 8 10 6 14 5 11 2h20l17-4 16-8 9-7 8-9 6-12 3-13v-53l-14-7-10-9-9-14-4-14v-17l3-12 6-12 9-10 9-7 12-5 9-2h16l12 3 11 6 10 9 7 10 5 12 2 11v10l-3 14-7 14-9 10-11 7-15 5-1 53-5 19-8 16-10 13-9 9-10 7-17 9-21 6-7 1h-23l-18-4-15-6-14-8-13-11-9-10-9-14-6-13-4-13-1-5v-45l-9-2-3-5-1-36-24-24-7-8-10-10-7-8-2-5 4-6-2-5-15-15-7-8-9-9-7-8-9-9-7-8-16-17-14-15-7-7-7-8-14-15-11-12-13-14-7-8-9-10-9-11-10-11-18-22-14-18-13-19-12-18-10-17-12-23-9-20-9-25-8-29-5-26-3-24-1-14v-33l1-12-9-1-6-3-1-6 11-52 3-10 3-3h13l8-18 10-18 11-15 12-14 9-9 11-9 13-9 16-9 16-7 21-6 18-3h34l17 3 3 1 2-5 5-8zm304 700-11 4-6 4-5 5-4 5-4 9-1 4v17l5 12 9 10 11 6 14 2 11-2 12-6 6-5 6-9 3-10v-15l-4-11-6-8-8-7-9-4-4-1z" fill="#1F4946"/>
<path transform="translate(1407,459)" d="m0 0h12l9 1 3 2 1 12-1 16-2 5-6 1h-19l3 12v19l-4 14-7 11-8 8-8 5-15 5-6 1h-30l-9-1-1 3v8l5 4 9 1 32 1 19 2 13 4 11 7 6 8 4 9 2 12v10l-2 13-4 11-7 9-9 8-12 6-14 4-15 2h-22l-18-2-14-4-11-6-7-8-3-12 2-11 6-12 8-10 6-5-12-6-7-8-3-9v-10l4-13 6-9 7-7-2-4-6-7-5-12-2-11v-10l2-13 5-12 6-9 7-7 10-6 16-5 8-1h16l18 4 9 5 3 2 7-10 8-4zm-69 37-10 5-4 5-2 6v11l4 8 6 5 5 2 11 1 12-3 6-5 3-7 1-9-4-11-7-6-6-2zm4 127-15 1-7 3-5 6-1 2v10l2 4 7 4 20 3h10l14-2 8-3 5-6 1-3v-7l-3-6-8-4-17-2z" fill="#1F4845"/>
<path transform="translate(1551,459)" d="m0 0h21l6 2 1 2v18l-1 10-3 4-10 1h-15l4 15v13l-3 14-6 12-6 7-10 7-12 5-17 3h-18l-14-1-1 3v7l3 3 10 2 37 1 17 3 12 5 8 6 6 7 4 9 2 10v16l-3 14-6 12-6 7-14 9-12 4-18 3h-30l-19-3-11-4-8-5-6-7-3-9v-8l2-9 6-11 9-10 5-4 1-2-9-2-8-7-4-8-1-5v-9l3-11 6-11 6-6-1-4-6-7-5-11-2-7-1-15 2-15 5-13 7-9 8-7 12-6 18-4h18l18 4 11 6h2l4-7 5-4zm-66 37-8 4-6 7-2 6v11l4 8 6 5 7 2h13l10-4 5-6 2-6v-12l-4-8-6-5-5-2zm-10 128-7 3-5 6-2 5v7l3 5 9 4 10 2h22l13-3 6-4 3-6v-8l-4-6-8-4-6-1z" fill="#1E4845"/>
<path transform="translate(858,112)" d="m0 0 7 1 6 9 3 6 20-4h37l25 5 18 6 20 10 16 11 13 11 18 18 11 15 12 20 8 17 2 4 5-1h8l4 5 6 34 4 26v8l-4 3-10 1 1 12v32l-3 27-5 27-5-2-21-9-2-2 3-21 2-16 1-42-13 1-4-4-2-6-8-53v-7l5-5 6-2-1-6-10-19-10-14-9-10-5-6-11-9-13-9-19-10-21-7-15-3-9-1h-16l-15 2 3 7-1 4-6 5-26 14-16 9-4 2h-5l-6-7-7-14v-2l-20 12-18 11-2 1 2 12-3 8-4 5-7 4-10 1-8-3-6-7-3-8 1-9 4-7 5-4 8-3 9 1 5 2 15-10 24-15-2-7-5-10v-5l8-7 31-16z" fill="#1F4845"/>
<path transform="translate(1009,703)" d="m0 0h35l3 2v81h64v-81l2-2h38l2 2v199l-4 3h-34l-4-4-1-75h-63v75l-4 4h-33l-5-5v-195l1-3z" fill="#1E4744"/>
<path transform="translate(960,423)" d="m0 0h65l17 3 15 5 15 8 11 9 7 7 7 10 8 15 5 18 2 15v16l-3 21-6 18-9 16-12 13-11 8-16 8-14 4-15 2h-65l-2-1-1-4v-187zm41 41v114h27l12-3 12-6 8-8 7-14 3-15v-20l-2-12-5-13-7-9-7-6-11-5-9-2-16-1z" fill="#1F4845"/>
<path transform="translate(1235,753)" d="m0 0h27l13 3 16 8 12 11 7 10 5 11 4 15 1 8v22l-2 5-2 2-100 1 4 8 8 8 8 4 7 2 9 1h9l16-2 19-6 6 1 4 5v26l-4 5-10 4-12 3-15 2h-24l-17-3-15-6-11-8-9-9-8-13-5-13-3-14v-24l3-15 7-16 8-11 6-7 11-8 12-6zm8 35-10 3-9 7-5 6-4 10 1 3h62l1-1-1-8-4-8-4-5-12-6-5-1z" fill="#1E4744"/>
<path transform="translate(1717,463)" d="m0 0h15l15 3 12 5 13 10 8 10 6 12 4 15 1 7v26l-3 6-4 1-93 1 5 9 4 5 11 6 8 2h24l23-6 3-1h8l4 4 1 3v24l-4 5-16 6-15 3-10 1h-18l-14-2-16-5-14-9-10-10-9-14-5-13-3-14v-22l4-18 8-16 8-11 7-7 13-8 12-5 8-2zm-3 35-12 6-7 8-4 9-1 5h62l-1-7-6-12-7-6-8-3z" fill="#1E4745"/>
<path transform="translate(1372,753)" d="m0 0 26 1 17 3 12 5 10 7 8 9 6 13 2 9 1 10v93l-3 3-2 1h-28l-4-4-1-5-12 7-14 4h-23l-13-4-9-6-8-8-6-14-1-5v-18l4-13 6-9 7-7 10-6 14-4 6-1h26l11 2-4-12-5-6-8-3-4-1-51-1-4-4v-30l3-4 9-1zm9 94-7 3-4 4-1 2v8l4 6 5 4 9 2 12-1 10-5 4-6 1-4v-11l-7-2z" fill="#1E4745"/>
<path transform="translate(739,514)" d="m0 0h17l11 4 8 6 6 8 4 9 2 10v10l-4 16-6 11-9 12-11 12-8 7-15 12-22 15h-5l-15-11-16-12-17-16-11-14-6-10-4-10-2-8v-17l4-12 8-11 9-6 8-3 5-1h14l12 4 8 7 6 9 3-1 6-9 7-6 9-4z" fill="#91C5DA"/>
<path transform="translate(1189,463)" d="m0 0h20l17 4 15 8 10 8 9 10 8 14 5 15 1 6v21l-4 16-5 12-7 10-9 10-10 8-16 8-11 3-6 1h-16l-14-3-12-5-11-7-13-13-7-11-5-11-4-14-1-7v-16l3-14 5-12 5-9 8-10 9-8 14-8 11-4zm1 39-10 4-10 9-6 12-1 4v16l4 11 5 7 8 6 10 4 9 1 14-3 10-6 7-8 4-10 1-5v-11l-3-10-5-8-5-5-5-4-10-4z" fill="#1E4745"/>
<path transform="translate(1618,716)" d="m0 0h20l9 1 2 3v35h34l3 2 1 14v16l-2 5-4 2h-32l1 68 2 6 5 2 3 1 21 1 4 4 1 7v19l-2 5-2 1-9 1h-19l-14-2-13-5-10-9-5-8-4-15-1-8v-68h-16l-5-5v-33l1-1h19l1-36 2-2z" fill="#1F4845"/>
<path transform="translate(1115,591)" d="m0 0 5 1 8 11 7 9 7 8 11 9 11 7 12 6 11 3 6 1h15l11-3 10-5 13-12 6-1 8 4 7 7 4 7v7l-6 9-10 9-12 7-14 5-8 2-10 1h-12l-19-3-15-5-16-8-12-8-11-9-5-4-5 3-14 11-16 9-11 5-12 4-5 1h-9l-6-7-2-10v-12l4-4 21-7 13-7 11-8 10-9 7-8 8-12z" fill="#85A878"/>
<path transform="translate(1559,753)" d="m0 0 12 1 4 2 1 3v24l-3 9-4 3-19-1-10 2-9 6-4 6-3 9-1 6-1 18-1 64-4 2h-32l-4-4-1-3v-140l2-4h38l1 1 1 12 8-7 14-7z" fill="#1F4845"/>
<path transform="translate(1622,466)" d="m0 0 7 2v145l-3 3h-34l-3-4v-142l2-3z" fill="#1E4744"/>
<path transform="translate(873,824)" d="m0 0h10l9 3 5 4 5 8 1 3v14l-5 8-7 6-10 3-10-1-8-4-6-7-3-7v-12l4-8 8-7z" fill="#85A878"/>
<path transform="translate(1603,399)" d="m0 0h13l8 3 5 6 3 9v10l-3 10-4 5-8 3h-16l-7-3-4-4-4-9v-15l4-9 5-4z" fill="#1F4845"/>
</svg>