<?xml version="1.0" encoding="UTF-8"?>
<svg version="1.1" xmlns="http://www.w3.org/2000/svg" width="744" height="734">
<path d="M0 0 C1.58757111 -0.01913956 1.58757111 -0.01913956 3.20721436 -0.03866577 C22.13922246 -0.2210949 40.23705806 2.25465338 57.8125 9.625 C59.4998344 10.29208569 61.187336 10.95874862 62.875 11.625 C65.2983261 12.59665837 67.71019062 13.58021646 70.10205078 14.62719727 C76.22422569 17.24433455 82.05882067 18.58924871 88.625 19.5625 C109.68968346 22.97983123 128.36970329 26.6348216 145.20898438 40.35400391 C148.64097098 43.07430267 152.27033444 45.53002597 155.86328125 48.03125 C156.82814453 48.82015625 156.82814453 48.82015625 157.8125 49.625 C157.8125 50.285 157.8125 50.945 157.8125 51.625 C158.575625 51.91375 159.33875 52.2025 160.125 52.5 C162.8125 53.625 162.8125 53.625 165.8125 55.625 C165.8125 56.285 165.8125 56.945 165.8125 57.625 C166.34875 57.8725 166.885 58.12 167.4375 58.375 C170.3948982 59.93152537 173.10974051 61.65935673 175.8125 63.625 C175.8125 64.285 175.8125 64.945 175.8125 65.625 C176.8025 65.625 177.7925 65.625 178.8125 65.625 C178.8125 66.285 178.8125 66.945 178.8125 67.625 C179.534375 67.87378906 180.25625 68.12257813 181 68.37890625 C184.0814507 69.7441601 186.23517997 71.39996741 188.8125 73.5625 C192.02514231 76.24806818 195.20209843 78.50834916 198.8125 80.625 C201.125 82.5625 201.125 82.5625 202.8125 84.625 C202.8125 85.945 202.8125 87.265 202.8125 88.625 C201.73935547 88.63116333 201.73935547 88.63116333 200.64453125 88.63745117 C197.36637875 88.67058256 194.09003672 88.7412492 190.8125 88.8125 C189.12447266 88.82120117 189.12447266 88.82120117 187.40234375 88.83007812 C180.30844136 89.01675977 175.25403819 89.86567913 169.8125 94.625 C164.78464718 100.82601848 164.5142295 109.04971875 164.49365234 116.703125 C164.48360672 117.57236099 164.4735611 118.44159698 164.46321106 119.33717346 C164.43255485 122.1831095 164.41539312 125.02895223 164.3984375 127.875 C164.3797117 129.85897617 164.36013725 131.84294449 164.3397522 133.8269043 C164.28857417 139.02833415 164.24887196 144.22978978 164.21160889 149.43133545 C164.17147914 154.74725649 164.12042783 160.06307162 164.0703125 165.37890625 C163.97372298 175.79419627 163.88926417 186.2095463 163.8125 196.625 C162.8225 196.955 161.8325 197.285 160.8125 197.625 C160.8125 196.965 160.8125 196.305 160.8125 195.625 C160.049375 195.33625 159.28625 195.0475 158.5 194.75 C155.8125 193.625 155.8125 193.625 152.8125 191.625 C152.8125 190.965 152.8125 190.305 152.8125 189.625 C152.1525 189.625 151.4925 189.625 150.8125 189.625 C150.8125 188.965 150.8125 188.305 150.8125 187.625 C149.8225 187.295 148.8325 186.965 147.8125 186.625 C147.8125 185.965 147.8125 185.305 147.8125 184.625 C146.8225 184.295 145.8325 183.965 144.8125 183.625 C139.53519576 177.99222967 135.37395681 171.19680508 131.0234375 164.8359375 C128.65919207 161.40235137 126.24359961 158.01147911 123.8125 154.625 C123.63074219 155.73617187 123.44898438 156.84734375 123.26171875 157.9921875 C123.00814483 159.49484778 122.75421952 160.9974488 122.5 162.5 C122.38205078 163.22703125 122.26410156 163.9540625 122.14257812 164.703125 C120.36802781 175.07741915 116.76861931 184.59091859 112.8125 194.3125 C112.15507813 195.94541992 112.15507813 195.94541992 111.484375 197.61132812 C108.03542227 206.15579687 108.03542227 206.15579687 106.09765625 210.234375 C104.35814416 214.82372604 103.82211978 219.33221325 103.25 224.1875 C102.99744072 226.160162 102.74483663 228.13281826 102.4921875 230.10546875 C102.26452404 231.94517659 102.03786064 233.78500865 101.8125 235.625 C99.67278026 253.08335005 95.93543984 269.40343736 86.8125 284.625 C86.22855469 285.60597656 85.64460938 286.58695312 85.04296875 287.59765625 C80.2027027 295.49493243 80.2027027 295.49493243 76.8125 296.625 C76.565 297.346875 76.3175 298.06875 76.0625 298.8125 C74.49402657 302.34156522 72.36079043 303.9372618 69.37109375 306.29296875 C67.68200777 307.56149295 67.68200777 307.56149295 66.8125 309.625 C65.8225 309.625 64.8325 309.625 63.8125 309.625 C63.8125 310.285 63.8125 310.945 63.8125 311.625 C56.19531207 317.1904615 47.73516339 321.58269429 38.8125 324.625 C38.14299316 324.88394043 37.47348633 325.14288086 36.78369141 325.40966797 C27.59694536 328.50010625 18.06332235 328.14754366 8.48291016 328.12597656 C5.47848864 328.12501314 2.47670483 328.1665354 -0.52734375 328.2109375 C-23.86837963 328.35765957 -44.5561037 323.06794287 -63.1875 308.625 C-63.1875 307.965 -63.1875 307.305 -63.1875 306.625 C-64.05181641 306.25181641 -64.05181641 306.25181641 -64.93359375 305.87109375 C-67.50906712 304.44721852 -69.20761557 302.80071857 -71.25 300.6875 C-72.25740234 299.65302734 -72.25740234 299.65302734 -73.28515625 298.59765625 C-73.91292969 297.94667969 -74.54070312 297.29570312 -75.1875 296.625 C-75.703125 296.15449219 -76.21875 295.68398438 -76.75 295.19921875 C-78.6519788 293.11634523 -79.81209164 290.86848112 -81.125 288.375 C-82.76138165 285.28551144 -84.41229682 282.2512049 -86.21484375 279.25390625 C-88.32008939 275.5851508 -89.61126944 271.85479888 -90.8125 267.8125 C-91.01617187 267.16474609 -91.21984375 266.51699219 -91.4296875 265.84960938 C-94.24971855 256.62123853 -95.67142718 247.06394784 -97.25 237.5625 C-97.42337891 236.53833984 -97.59675781 235.51417969 -97.77539062 234.45898438 C-98.54079452 229.86949357 -99.24058937 225.32335772 -99.6484375 220.6875 C-100.01123232 217.17705459 -100.83350614 214.70693334 -102.75 211.6875 C-105.1875 207.77230878 -105.1875 207.77230878 -105.1875 205.625 C-105.8475 205.625 -106.5075 205.625 -107.1875 205.625 C-114.05155204 191.69003408 -117.54178264 179.05602038 -119.1875 163.625 C-119.41824219 164.17027344 -119.64898437 164.71554687 -119.88671875 165.27734375 C-122.33121511 170.9296377 -125.1112365 176.29196943 -128.1875 181.625 C-128.8475 181.625 -129.5075 181.625 -130.1875 181.625 C-130.30222656 182.20765625 -130.41695313 182.7903125 -130.53515625 183.390625 C-131.23574062 185.79023135 -132.16942595 187.35360933 -133.625 189.375 C-134.05683594 189.98859375 -134.48867187 190.6021875 -134.93359375 191.234375 C-135.34738281 191.69328125 -135.76117188 192.1521875 -136.1875 192.625 C-136.8475 192.625 -137.5075 192.625 -138.1875 192.625 C-138.1875 193.285 -138.1875 193.945 -138.1875 194.625 C-139.5625 196.25 -139.5625 196.25 -141.1875 197.625 C-141.8475 197.625 -142.5075 197.625 -143.1875 197.625 C-143.5175 198.615 -143.8475 199.605 -144.1875 200.625 C-147.34949151 201.67899717 -149.80210186 201.85945913 -153.125 201.9375 C-154.16527344 201.97488281 -155.20554688 202.01226562 -156.27734375 202.05078125 C-159.1875 201.625 -159.1875 201.625 -161.55859375 200.296875 C-164.20486191 195.9562337 -163.5208335 191.52778174 -163.3125 186.5625 C-162.93099003 175.74598594 -163.36456421 166.11837168 -168.5625 156.4375 C-169.14773437 155.33019531 -169.73296875 154.22289062 -170.3359375 153.08203125 C-170.94695312 151.94121094 -171.55796875 150.80039062 -172.1875 149.625 C-172.81152631 148.33802889 -173.43385478 147.05023348 -174.0546875 145.76171875 C-176.34310613 141.15783554 -179.12855192 136.92390019 -181.9375 132.625 C-187.34015961 124.23328273 -191.93857586 115.64668824 -196.1875 106.625 C-196.5175 105.965 -196.8475 105.305 -197.1875 104.625 C-197.45517682 101.25632776 -197.41914069 97.87811289 -197.4375 94.5 C-197.458125 93.57445312 -197.47875 92.64890625 -197.5 91.6953125 C-197.54447799 83.82270848 -195.88419282 77.85425763 -191.625 71.125 C-191.21121094 70.4546875 -190.79742187 69.784375 -190.37109375 69.09375 C-189.98050781 68.6090625 -189.58992187 68.124375 -189.1875 67.625 C-188.5275 67.625 -187.8675 67.625 -187.1875 67.625 C-187.1875 66.965 -187.1875 66.305 -187.1875 65.625 C-185.8125 64 -185.8125 64 -184.1875 62.625 C-183.5275 62.625 -182.8675 62.625 -182.1875 62.625 C-182.1875 61.965 -182.1875 61.305 -182.1875 60.625 C-181.1975 60.625 -180.2075 60.625 -179.1875 60.625 C-178.8575 59.635 -178.5275 58.645 -178.1875 57.625 C-176.64038086 56.27807617 -176.64038086 56.27807617 -174.65234375 54.91796875 C-173.56083008 54.1609668 -173.56083008 54.1609668 -172.44726562 53.38867188 C-171.68091797 52.86853516 -170.91457031 52.34839844 -170.125 51.8125 C-168.63327764 50.78637189 -167.14238924 49.75903034 -165.65234375 48.73046875 C-164.54608643 47.9712915 -164.54608643 47.9712915 -163.41748047 47.19677734 C-160.48103127 45.12705324 -157.6447891 42.93720902 -154.81860352 40.7199707 C-153.1875 39.625 -153.1875 39.625 -151.1875 39.625 C-151.1875 38.965 -151.1875 38.305 -151.1875 37.625 C-145.77573529 33.625 -145.77573529 33.625 -143.1875 33.625 C-143.1875 32.965 -143.1875 32.305 -143.1875 31.625 C-142.1975 31.625 -141.2075 31.625 -140.1875 31.625 C-140.1875 30.965 -140.1875 30.305 -140.1875 29.625 C-135.80288462 26.625 -135.80288462 26.625 -133.1875 26.625 C-133.1875 25.965 -133.1875 25.305 -133.1875 24.625 C-131.19197511 23.21162824 -129.21951212 21.93778379 -127.125 20.6875 C-125.99964844 19.99785156 -124.87429687 19.30820313 -123.71484375 18.59765625 C-116.72853539 14.37927783 -111.33195816 13.19820507 -103.265625 13.25390625 C-101.33333161 13.23651805 -99.40103999 13.21893373 -97.46875 13.20117188 C-94.45634609 13.19113379 -91.44406051 13.18749627 -88.43164062 13.18920898 C-72.8632704 13.31569328 -72.8632704 13.31569328 -58.1875 8.625 C-39.26250652 1.00163012 -20.16990785 0.1003302 0 0 Z M63.8125 112.625 C61.45386157 116.48459016 61.26715012 120.18429386 61.8125 124.625 C63.71243229 127.83113573 65.14724007 130.02402918 68.75 131.32421875 C72.28186399 131.94630843 74.31022973 131.84823123 77.625 130.375 C81.44534875 127.53287451 81.44534875 127.53287451 83.3515625 123.35546875 C83.54328987 118.21041034 83.54328987 118.21041034 81.453125 113.63671875 C78.63736747 111.02653644 76.54995391 109.76045072 72.75 109.0625 C69.24578608 109.73351969 66.79852764 110.65693633 63.8125 112.625 Z M-76.1875 115.625 C-76.1875 116.285 -76.1875 116.945 -76.1875 117.625 C-76.8475 117.625 -77.5075 117.625 -78.1875 117.625 C-79.71964888 120.68929776 -79.41688548 123.2415642 -79.1875 126.625 C-77.54015048 130.24916894 -75.73347317 132.75351416 -72.1875 134.625 C-68.3275139 135.04608939 -65.88290214 134.92734876 -62.3125 133.375 C-59.99419656 131.46580893 -59.49138164 130.56252254 -59.1875 127.625 C-58.5275 127.625 -57.8675 127.625 -57.1875 127.625 C-57.42731802 121.64269051 -57.42731802 121.64269051 -60.625 116.75 C-61.470625 116.04875 -62.31625 115.3475 -63.1875 114.625 C-63.8475 113.965 -64.5075 113.305 -65.1875 112.625 C-69.84396621 112.19384572 -72.84183901 112.14551258 -76.1875 115.625 Z " fill="#1E4744" transform="translate(336.1875,161.375)"/>
<path d="M0 0 C6.80975108 -0.74019033 11.14048045 1.72449218 17 5 C17.68578125 5.3609375 18.3715625 5.721875 19.078125 6.09375 C38.43954918 16.43954918 38.43954918 16.43954918 43 21 C43.56406245 27.54312443 42.4537114 30.49564745 39 36 C39 36.99 39 37.98 39 39 C40.32 39.66 41.64 40.32 43 41 C43 41.66 43 42.32 43 43 C43.515625 43.0825 44.03125 43.165 44.5625 43.25 C48.04455732 44.32140225 50.87200885 46.13523605 54 48 C54 48.66 54 49.32 54 50 C54.721875 50.28875 55.44375 50.5775 56.1875 50.875 C57.92066114 51.56826446 59.64107543 52.29588097 61.3359375 53.078125 C64.29032643 54.10046486 66.33554932 54.07739678 69.4375 53.875 C74.50502406 53.78645455 77.1304464 54.50796382 81 58 C82.175625 59.0209375 82.175625 59.0209375 83.375 60.0625 C85.8758716 64.58330635 85.64676293 68.94764017 85 74 C83.625 77 83.625 77 82 79 C81.34 79.99 80.68 80.98 80 82 C76.70907406 83.09697531 74.08887841 83.2371983 70.625 83.3125 C68.94277344 83.36857422 68.94277344 83.36857422 67.2265625 83.42578125 C63.35375842 82.91472115 61.7227867 81.74828096 59 79 C59 78.34 59 77.68 59 77 C58.34 77 57.68 77 57 77 C55.6448254 72.9344762 55.72414359 68.97994696 55.57421875 64.71484375 C55.29916112 61.8565325 55.29916112 61.8565325 52.95703125 60.62890625 C52.31121094 60.42136719 51.66539062 60.21382812 51 60 C51 59.34 51 58.68 51 58 C49.824375 57.7215625 49.824375 57.7215625 48.625 57.4375 C44.32486564 55.73227431 41.05327571 53.32028912 37.3671875 50.55859375 C35.1545703 49.10177154 33.58449293 48.43471886 31 48 C30.5875 49.216875 30.175 50.43375 29.75 51.6875 C28.30425391 55.42123876 27.13080393 58.36353353 24 61 C14.86132373 62.94758675 7.57659413 57.48759027 0 53 C-1.37485866 52.20157948 -2.74985867 51.40340232 -4.125 50.60546875 C-7.78758775 48.45626332 -11.42426842 46.2919147 -15 44 C-15.98742187 43.43796875 -16.97484375 42.8759375 -17.9921875 42.296875 C-20 40 -20 40 -20.08251953 37.74707031 C-19.83517258 35.45967011 -19.48516712 33.24810112 -19 31 C-42.90756957 31.91397147 -63.20020295 34.73274169 -83.9375 47.2421875 C-87 49 -87 49 -89 49 C-89 49.66 -89 50.32 -89 51 C-91.65281724 53.07194174 -94.4250408 54.93220383 -97.203125 56.83203125 C-99.9963216 58.99714872 -101.88679861 61.18703236 -104 64 C-104.7425 64.70125 -105.485 65.4025 -106.25 66.125 C-115.04883465 75.32378168 -121.41315788 86.64176541 -127 98 C-125.865625 98.28875 -124.73125 98.5775 -123.5625 98.875 C-122.386875 99.24625 -121.21125 99.6175 -120 100 C-118.76204196 102.47591607 -118.83235395 104.16986001 -118.8125 106.9375 C-118.79832031 107.81277344 -118.78414062 108.68804687 -118.76953125 109.58984375 C-119.09977262 114.47629664 -120.06803557 119.19685797 -121 124 C-121.19295654 125.03858154 -121.38591309 126.07716309 -121.5847168 127.1472168 C-122.18832606 130.39263162 -122.81137096 133.63386146 -123.4375 136.875 C-123.74397461 138.52628906 -123.74397461 138.52628906 -124.05664062 140.2109375 C-124.36698242 141.80421875 -124.36698242 141.80421875 -124.68359375 143.4296875 C-124.86462646 144.38085449 -125.04565918 145.33202148 -125.23217773 146.31201172 C-126.09909289 149.34690389 -127.04220321 151.51496437 -129 154 C-131.26171875 154.48828125 -131.26171875 154.48828125 -133.6875 154.3125 C-134.49574219 154.26738281 -135.30398437 154.22226563 -136.13671875 154.17578125 C-136.75160156 154.11777344 -137.36648437 154.05976563 -138 154 C-137.09611224 193.91068641 -132.88509607 232.61909726 -115 269 C-114.43023437 270.17820312 -113.86046875 271.35640625 -113.2734375 272.5703125 C-110.26297901 278.74096216 -107.07811614 284.73306654 -103.4609375 290.5703125 C-101.88841691 293.18557401 -100.47778137 295.8592377 -99.0625 298.5625 C-96.59134491 303.18362556 -93.70847859 307.13547109 -90.3203125 311.125 C-89 313 -89 313 -89 316 C-88.01 316.33 -87.02 316.66 -86 317 C-84.71313477 318.51879883 -84.71313477 318.51879883 -83.44140625 320.45703125 C-82.97283203 321.15763672 -82.50425781 321.85824219 -82.02148438 322.58007812 C-81.54001953 323.31677734 -81.05855469 324.05347656 -80.5625 324.8125 C-77.62426401 329.27338461 -74.836785 333.25391914 -71 337 C-71 337.66 -71 338.32 -71 339 C-70.34 339 -69.68 339 -69 339 C-67.34375 340.828125 -67.34375 340.828125 -65.5 343.25 C-64.8915625 344.03890625 -64.283125 344.8278125 -63.65625 345.640625 C-62.20260967 347.71137679 -61.05234257 349.7058932 -60 352 C-59.34 352 -58.68 352 -58 352 C-58 352.99 -58 353.98 -58 355 C-57.01 355.33 -56.02 355.66 -55 356 C-53.2109375 357.7421875 -53.2109375 357.7421875 -51.375 359.875 C-50.76398438 360.57367188 -50.15296875 361.27234375 -49.5234375 361.9921875 C-48 364 -48 364 -47 367 C-46.34 367 -45.68 367 -45 367 C-42 370.46153846 -42 370.46153846 -42 373 C-41.34 373 -40.68 373 -40 373 C-40 373.66 -40 374.32 -40 375 C-39.01 375.33 -38.02 375.66 -37 376 C-37 376.66 -37 377.32 -37 378 C-36.34 378 -35.68 378 -35 378 C-33.50370821 379.6785513 -32.07707339 381.41958898 -30.6875 383.1875 C-28.29902741 386.2166834 -25.9640178 389.03527765 -23.20703125 391.73828125 C-21 394 -21 394 -21 396 C-20.34 396 -19.68 396 -19 396 C-17.375 397.375 -17.375 397.375 -16 399 C-16 399.66 -16 400.32 -16 401 C-15.34 401 -14.68 401 -14 401 C-12.30859375 402.64453125 -12.30859375 402.64453125 -10.4375 404.8125 C-9.81746094 405.52019531 -9.19742188 406.22789062 -8.55859375 406.95703125 C-7 409 -7 409 -6 412 C-5.34 412.33 -4.68 412.66 -4 413 C-3.34 413.33 -2.68 413.66 -2 414 C-1.67 414.99 -1.34 415.98 -1 417 C-0.34 417 0.32 417 1 417 C2.7265625 418.6796875 2.7265625 418.6796875 4.625 420.875 C5.25664062 421.59429687 5.88828125 422.31359375 6.5390625 423.0546875 C8 425 8 425 8 427 C8.66 427 9.32 427 10 427 C11.3671875 428.390625 11.3671875 428.390625 12.875 430.25 C14.64727834 432.40019063 16.3731159 434.36329706 18.375 436.3125 C20 438 20 438 20 440 C20.99 440.33 21.98 440.66 23 441 C23 441.66 23 442.32 23 443 C23.66 443 24.32 443 25 443 C25 443.66 25 444.32 25 445 C25.99 445.33 26.98 445.66 28 446 C28 446.66 28 447.32 28 448 C28.66 448 29.32 448 30 448 C31.4387207 449.44238281 31.4387207 449.44238281 33.11328125 451.453125 C36.99972801 456.02304686 41.0658902 460.39231677 45.1875 464.75 C46.23454102 465.86181641 46.23454102 465.86181641 47.30273438 466.99609375 C51.19087306 471.12877148 51.19087306 471.12877148 55.2277832 475.11425781 C57 477 57 477 57 479 C57.66 479 58.32 479 59 479 C60.625 480.5 60.625 480.5 62 482 C62.70125 481.505 63.4025 481.01 64.125 480.5 C67.68738517 478.64136426 69.01735967 478.29362739 73 479 C76.14001084 481.35032621 78.75490668 484.14900339 81.4375 487 C82.52514648 488.11568359 82.52514648 488.11568359 83.63476562 489.25390625 C87.72117283 493.47615988 91.65049074 497.81465847 95.47680664 502.2734375 C96.92683247 503.91706351 98.4329012 505.46843033 100 507 C100.33 506.34 100.66 505.68 101 505 C101.66 505 102.32 505 103 505 C103.33 504.01 103.66 503.02 104 502 C104.66 502 105.32 502 106 502 C106 501.34 106 500.68 106 500 C107.375 498.375 107.375 498.375 109 497 C109.66 497 110.32 497 111 497 C111 496.34 111 495.68 111 495 C112.375 493.375 112.375 493.375 114 492 C114.66 492 115.32 492 116 492 C116.24363281 491.43796875 116.48726563 490.8759375 116.73828125 490.296875 C119.23143661 485.75825163 122.95133399 482.18062141 127 479 C130.875 478.25 130.875 478.25 134 479 C135.9375 480.375 135.9375 480.375 137 482 C137 482.66 137 483.32 137 484 C138.14926266 483.04578192 139.29430541 482.08647955 140.4375 481.125 C141.07558594 480.59132813 141.71367187 480.05765625 142.37109375 479.5078125 C144.10805004 478.0777243 144.10805004 478.0777243 145 476 C145.66 476 146.32 476 147 476 C147 475.34 147 474.68 147 474 C148.28515625 472.7734375 148.28515625 472.7734375 150.0625 471.375 C152.7368989 469.17651786 155.03820197 466.91271768 157.27026367 464.26879883 C160.87271426 460.09356416 164.69075361 456.19724433 168.61328125 452.32421875 C169.65671944 451.28646049 169.65671944 451.28646049 170.72123718 450.22773743 C172.915883 448.04518289 175.1137706 445.86594013 177.3125 443.6875 C180.22813451 440.79844894 183.14044353 437.90610442 186.05078125 435.01171875 C186.71846024 434.3523381 187.38613922 433.69295746 188.0740509 433.01359558 C188.69197006 432.39897964 189.30988922 431.78436371 189.9465332 431.15112305 C190.48945511 430.61343796 191.03237701 430.07575287 191.5917511 429.52177429 C193.21646302 427.84647693 193.21646302 427.84647693 195 425 C195.66 425 196.32 425 197 425 C197.37125 424.13375 197.37125 424.13375 197.75 423.25 C199.18299988 420.67060021 200.78424676 418.93878408 203 417 C203.66 417 204.32 417 205 417 C205.268125 416.360625 205.53625 415.72125 205.8125 415.0625 C207 413 207 413 210 412 C210.68486725 410.67592331 211.34870203 409.34090759 212 408 C214 405.75 214 405.75 216 404 C216.66 404 217.32 404 218 404 C218.268125 403.360625 218.53625 402.72125 218.8125 402.0625 C220 400 220 400 223 399 C223.309375 398.360625 223.61875 397.72125 223.9375 397.0625 C225.2342338 394.54531085 226.4221737 394.03113052 229 393 C229 392.34 229 391.68 229 391 C229.66 391 230.32 391 231 391 C231.268125 390.236875 231.53625 389.47375 231.8125 388.6875 C232.95134505 386.11011382 233.81416671 384.73045136 236 383 C236.66 383 237.32 383 238 383 C238.33 382.01 238.66 381.02 239 380 C239.66 380 240.32 380 241 380 C241 379.34 241 378.68 241 378 C242.375 376.375 242.375 376.375 244 375 C244.66 375 245.32 375 246 375 C246 374.34 246 373.68 246 373 C247.375 371.375 247.375 371.375 249 370 C249.66 370 250.32 370 251 370 C251.33 369.01 251.66 368.02 252 367 C252.66 367 253.32 367 254 367 C254 366.34 254 365.68 254 365 C254.66 365 255.32 365 256 365 C256.33 364.01 256.66 363.02 257 362 C257.66 362 258.32 362 259 362 C259.2475 361.360625 259.495 360.72125 259.75 360.0625 C261 358 261 358 263.078125 357.37109375 C263.71234375 357.24863281 264.3465625 357.12617188 265 357 C265.03738281 357.99 265.07476562 358.98 265.11328125 360 C265.37809501 368.49629743 265.37809501 368.49629743 267.625 376.625 C269.12575392 380.3086687 269.16141227 381.31934265 268 385 C266.52880859 386.90942383 266.52880859 386.90942383 264.6484375 388.70703125 C263.61783203 389.7115332 263.61783203 389.7115332 262.56640625 390.73632812 C261.48166016 391.7640332 261.48166016 391.7640332 260.375 392.8125 C258.96363944 394.17057715 257.55477085 395.53124892 256.1484375 396.89453125 C255.45717773 397.56307129 254.76591797 398.23161133 254.05371094 398.92041016 C251.34865457 401.65955306 248.87919401 404.5679393 246.43212891 407.5378418 C245.95952637 408.020354 245.48692383 408.50286621 245 409 C244.34 409 243.68 409 243 409 C243 409.66 243 410.32 243 411 C242.34 411 241.68 411 241 411 C240.67 411.99 240.34 412.98 240 414 C239.34 414 238.68 414 238 414 C237.731875 414.639375 237.46375 415.27875 237.1875 415.9375 C236 418 236 418 233 419 C232.67 419.99 232.34 420.98 232 422 C231.34 422 230.68 422 230 422 C230 422.66 230 423.32 230 424 C229.34 424 228.68 424 228 424 C227.67 424.99 227.34 425.98 227 427 C226.34 427 225.68 427 225 427 C224.731875 427.639375 224.46375 428.27875 224.1875 428.9375 C223 431 223 431 220 432 C219.67 432.99 219.34 433.98 219 435 C218.34 435 217.68 435 217 435 C217 435.66 217 436.32 217 437 C216.34 437 215.68 437 215 437 C214.67 437.99 214.34 438.98 214 440 C213.34 440 212.68 440 212 440 C211.814375 440.70125 211.62875 441.4025 211.4375 442.125 C209.72616468 445.54767064 207.68890975 447.14621795 204.74609375 449.5078125 C202.50383117 451.424019 200.82885573 453.69699649 199 456 C198.34 456 197.68 456 197 456 C197 456.66 197 457.32 197 458 C195.6796875 459.26171875 195.6796875 459.26171875 193.875 460.6875 C191.31036098 462.80409968 189.10871344 464.9296493 187 467.5 C185.00754657 469.91525522 182.98125793 471.94970117 180.5625 473.9375 C177.40893637 476.5518179 174.85689328 479.39418596 172.2421875 482.5390625 C170.37747234 484.58570109 168.49025769 486.41545873 166.4453125 488.2734375 C159.43724025 494.06323173 159.43724025 494.06323173 155.4140625 501.7734375 C155.58878667 503.35593924 155.80934642 504.93447708 156.08837891 506.50195312 C155.96653458 509.94590666 154.72250323 510.97554108 152.359375 513.4453125 C151.53397217 514.31607422 150.70856934 515.18683594 149.8581543 516.08398438 C148.90662725 517.05715557 147.95384493 518.02910055 147 519 C145.95026827 520.08137203 144.90054528 521.16275255 143.85083008 522.24414062 C141.02814582 525.13731198 138.18083797 528.00486537 135.32250977 530.86279297 C133.53568583 532.65184765 131.75707043 534.44882243 129.97851562 536.24609375 C128.84163324 537.38590303 127.70428143 538.52524433 126.56640625 539.6640625 C126.03624405 540.20141022 125.50608185 540.73875793 124.95985413 541.29238892 C121.22888073 545 121.22888073 545 119 545 C118.98598145 546.18758911 118.98598145 546.18758911 118.97167969 547.39916992 C118.91790656 550.99590708 118.83427037 554.59135352 118.75 558.1875 C118.73582031 559.43337891 118.72164063 560.67925781 118.70703125 561.96289062 C118.67480469 563.16494141 118.64257812 564.36699219 118.609375 565.60546875 C118.5779541 567.26292114 118.5779541 567.26292114 118.54589844 568.95385742 C117.87754909 572.68328263 116.73463367 574.40330536 114 577 C112.68 577 111.36 577 110 577 C110.11112049 581.29214174 110.24144717 585.58350231 110.375 589.875 C110.42140625 591.68097656 110.42140625 591.68097656 110.46875 593.5234375 C110.96703439 608.80415873 113.90173756 621.59764289 124.82421875 632.97265625 C136.72636264 644.06280469 149.57417197 647.7031024 165.48999023 647.45776367 C175.22364741 647.09752271 182.69131603 645.0198299 191 640 C191.99 640 192.98 640 194 640 C194.33 639.01 194.66 638.02 195 637 C196.66279327 635.9935725 198.32983484 634.99414593 200 634 C201.01800576 632.68036291 202.02248365 631.34990354 203 630 C203.66 630 204.32 630 205 630 C205.28875 629.071875 205.5775 628.14375 205.875 627.1875 C207 624 207 624 209 621 C210.84043585 615.0085678 211.32977902 609.49241537 211.4140625 603.25 C211.43342865 602.35128174 211.4527948 601.45256348 211.4727478 600.52661133 C211.53204608 597.68450104 211.57872808 594.84234915 211.625 592 C211.66322567 590.06118124 211.70228 588.12237862 211.7421875 586.18359375 C211.8377061 581.4558619 211.9219186 576.72805068 212 572 C210.89519287 571.69964844 209.79038574 571.39929688 208.65209961 571.08984375 C205.281718 570.08406907 203.29488488 569.13051453 200.5625 567 C199.88316406 566.484375 199.20382812 565.96875 198.50390625 565.4375 C198.00761719 564.963125 197.51132812 564.48875 197 564 C197 563.34 197 562.68 197 562 C196.01 561.67 195.02 561.34 194 561 C192.2109375 558.3828125 192.2109375 558.3828125 190.375 555.125 C189.76398438 554.05507813 189.15296875 552.98515625 188.5234375 551.8828125 C183.86604784 543.06959823 184.26166503 529.16458057 186.57861328 519.61523438 C189.23614045 512.16501261 193.92721738 506.00373531 200 501 C200.721875 500.278125 201.44375 499.55625 202.1875 498.8125 C213.05052531 491.81188369 226.98726885 491.0738506 239.41796875 493.73046875 C242.09801398 494.63613921 244.50559753 495.67141174 247 497 C247.63808594 497.32742188 248.27617187 497.65484375 248.93359375 497.9921875 C258.43917657 503.79292178 264.44609881 515.51245205 267 526 C268.40607154 539.18192069 265.95279973 550.3425319 258 561 C252.47295913 566.87528938 246.25803944 571.43644655 238.27734375 573.10546875 C237.47417725 573.2758667 236.67101074 573.44626465 235.84350586 573.62182617 C235.23514893 573.74662354 234.62679199 573.8714209 234 574 C234.01047363 575.10400146 234.02094727 576.20800293 234.03173828 577.34545898 C234.06818892 581.47726138 234.09099091 585.60904983 234.10986328 589.7409668 C234.11986411 591.52256671 234.13346916 593.30415044 234.15087891 595.08569336 C234.17538957 597.66003433 234.18654248 600.23415657 234.1953125 602.80859375 C234.20563507 603.59334579 234.21595764 604.37809784 234.22659302 605.18663025 C234.22919442 618.27627835 229.39185209 630.31270921 222 641 C221.55269531 641.67417969 221.10539062 642.34835937 220.64453125 643.04296875 C219.49056372 644.73838732 218.25207485 646.37568668 217 648 C216.34 648 215.68 648 215 648 C215 648.66 215 649.32 215 650 C213.625 651.625 213.625 651.625 212 653 C211.34 653 210.68 653 210 653 C210 653.66 210 654.32 210 655 C209.01 655 208.02 655 207 655 C207 655.66 207 656.32 207 657 C205.0234375 658.40234375 205.0234375 658.40234375 202.375 659.9375 C201.08722656 660.69353516 201.08722656 660.69353516 199.7734375 661.46484375 C187.53639813 668.23830357 176.68993708 670.37136997 162.8125 670.4375 C161.73258789 670.44740967 160.65267578 670.45731934 159.54003906 670.4675293 C143.9962641 670.30310124 127.81421102 665.38218544 116 655 C114.74896484 653.92685547 114.74896484 653.92685547 113.47265625 652.83203125 C108.92740317 648.84742613 104.52281179 644.9319365 101 640 C101 639.01 101 638.02 101 637 C100.34 637 99.68 637 99 637 C98.0665971 635.44743984 97.15455735 633.88204134 96.25 632.3125 C95.73953125 631.44238281 95.2290625 630.57226562 94.703125 629.67578125 C88.91954143 617.95027894 88.48064584 606.94243571 88.75 594.1875 C88.77011753 592.51239141 88.78835891 590.83725919 88.8046875 589.16210938 C88.8482177 585.10747626 88.9169457 581.05400814 89 577 C88.071875 576.896875 87.14375 576.79375 86.1875 576.6875 C83 576 83 576 81.11083984 574.77880859 C79.51282224 572.21987315 79.90083758 570.51453765 80.2265625 567.5390625 C81.21792701 552.61282205 81.21792701 552.61282205 74.4453125 539.75390625 C70.01915962 535.18761133 65.26267029 531.05017784 60.35083008 527.01635742 C57.49079902 524.56324739 55.31945729 521.95763814 53 519 C51.80421317 517.90006782 50.57981283 516.82919816 49.3125 515.8125 C46.94249844 513.90493777 45.74137773 512.61206659 44 510 C43.80149397 506.29455413 43.82335129 503.52994613 45 500 C43.88142142 498.16289945 43.88142142 498.16289945 42.125 496.375 C41.47789062 495.67117188 40.83078125 494.96734375 40.1640625 494.2421875 C37.22304776 491.19499894 34.22198236 488.21214273 31.20703125 485.23828125 C28.50857617 482.50161796 25.99964258 479.63281146 23.49609375 476.71875 C21.22703472 474.11199811 18.78044561 471.7246995 16.25 469.375 C15 468 15 468 15 466 C14.34 466 13.68 466 13 466 C11.375 464.625 11.375 464.625 10 463 C10 462.34 10 461.68 10 461 C9.01 460.67 8.02 460.34 7 460 C5.17578125 458.22265625 5.17578125 458.22265625 3.3125 456.0625 C2.37857422 454.99708984 2.37857422 454.99708984 1.42578125 453.91015625 C0 452 0 452 0 450 C-0.59039062 449.74605469 -1.18078125 449.49210937 -1.7890625 449.23046875 C-4.24269555 447.86493092 -5.57844906 446.45908316 -7.375 444.3125 C-8.27412109 443.25289063 -8.27412109 443.25289063 -9.19140625 442.171875 C-9.78824219 441.45515625 -10.38507813 440.7384375 -11 440 C-12.10148242 438.6852465 -13.20544278 437.37256282 -14.3125 436.0625 C-14.78300781 435.49660156 -15.25351563 434.93070312 -15.73828125 434.34765625 C-16.97950473 432.86554616 -16.97950473 432.86554616 -19 432 C-19 431.34 -19 430.68 -19 430 C-19.66 430 -20.32 430 -21 430 C-26 424.52380952 -26 424.52380952 -26 422 C-26.99 421.67 -27.98 421.34 -29 421 C-29 420.34 -29 419.68 -29 419 C-29.84498047 418.65775391 -29.84498047 418.65775391 -30.70703125 418.30859375 C-33.62731794 416.64199061 -35.45735763 414.57279249 -37.6875 412.0625 C-38.47511719 411.18722656 -39.26273438 410.31195313 -40.07421875 409.41015625 C-42 407 -42 407 -43 404 C-43.66 404 -44.32 404 -45 404 C-46.39131742 402.40288354 -47.71517335 400.74647316 -49 399.0625 C-51.54336771 395.48783076 -51.54336771 395.48783076 -55 393 C-55 392.34 -55 391.68 -55 391 C-55.99 390.67 -56.98 390.34 -58 390 C-58.309375 389.195625 -58.61875 388.39125 -58.9375 387.5625 C-59.7121181 384.89113967 -59.7121181 384.89113967 -61.8125 384.125 C-64.80871615 382.58408884 -66.03679439 380.33854107 -67.8515625 377.55859375 C-68.93246934 375.84427485 -68.93246934 375.84427485 -71 375 C-71 374.01 -71 373.02 -71 372 C-71.66 372 -72.32 372 -73 372 C-73 371.34 -73 370.68 -73 370 C-73.99 369.67 -74.98 369.34 -76 369 C-77.875 366.98828125 -77.875 366.98828125 -80 364.3125 C-80.79277344 363.31992187 -81.58554688 362.32734375 -82.40234375 361.3046875 C-83.2689941 360.20372671 -84.13485318 359.10214268 -85 358 C-85.91793067 356.83590747 -86.83590014 355.67184554 -87.75390625 354.5078125 C-89.15892667 352.72409422 -90.56156891 350.93869346 -91.95825195 349.1484375 C-95.43537249 344.69220221 -99.00439155 340.31941288 -102.63671875 335.98828125 C-104 334 -104 334 -104 331 C-104.99 330.67 -105.98 330.34 -107 330 C-108.53515625 327.78515625 -108.53515625 327.78515625 -110.0625 325.0625 C-112.19623733 321.27918235 -112.19623733 321.27918235 -115 318 C-115 317.01 -115 316.02 -115 315 C-115.66 315 -116.32 315 -117 315 C-118.515625 312.7265625 -118.515625 312.7265625 -120.25 309.625 C-122.36357219 305.87959384 -124.50232589 302.18901263 -126.8125 298.5625 C-134.07457633 286.51760458 -139.98444737 273.12288429 -145 260 C-145.23138672 259.39865234 -145.46277344 258.79730469 -145.70117188 258.17773438 C-150.08253667 246.67238423 -153.27809071 234.99908345 -156 223 C-156.15597656 222.31663574 -156.31195313 221.63327148 -156.47265625 220.92919922 C-160.41070062 203.37208473 -161.28433195 186.3443073 -161.125 168.4375 C-161.11493762 166.44336393 -161.1058176 164.44922288 -161.09765625 162.45507812 C-161.0759296 157.63659238 -161.04158441 152.81835359 -161 148 C-162.39605469 148.0309375 -162.39605469 148.0309375 -163.8203125 148.0625 C-167.61476383 147.98791619 -169.22573921 147.61106898 -172 145 C-172.36905368 139.45228989 -171.66444399 134.62228588 -170.25 129.25 C-168.37897284 121.80530787 -166.83636761 114.33262725 -165.48339844 106.77636719 C-163.55085532 96.55085532 -163.55085532 96.55085532 -160 93 C-158.31391034 92.92794489 -156.62499341 92.91613932 -154.9375 92.9375 C-153.55884766 92.95103516 -153.55884766 92.95103516 -152.15234375 92.96484375 C-151.08693359 92.98224609 -151.08693359 92.98224609 -150 93 C-149.74605469 92.16855469 -149.49210937 91.33710938 -149.23046875 90.48046875 C-147.85506785 86.59004905 -146.16715892 82.99215392 -144.3125 79.3125 C-143.96018311 78.61133057 -143.60786621 77.91016113 -143.24487305 77.18774414 C-140.19389229 71.20962822 -136.78165971 65.54705367 -133 60 C-132.54753906 59.32324219 -132.09507812 58.64648438 -131.62890625 57.94921875 C-129.0683948 54.2241133 -126.20578317 51.16812346 -123 48 C-122.20722656 47.16082031 -121.41445312 46.32164063 -120.59765625 45.45703125 C-105.71157205 29.9287123 -86.62015819 18.19937724 -66 12 C-65.23469971 11.74275146 -64.46939941 11.48550293 -63.6809082 11.22045898 C-54.35097559 8.42918703 -45.12485301 8.57807506 -35.47998047 8.66381836 C-32.61007007 8.68762384 -29.74107935 8.68433373 -26.87109375 8.67773438 C-25.0312445 8.68330604 -23.19139911 8.69041268 -21.3515625 8.69921875 C-20.07643295 8.69785164 -20.07643295 8.69785164 -18.77554321 8.69645691 C-14.12770429 8.75171951 -10.37300327 9.22366079 -6 11 C-5.8453125 10.1646875 -5.8453125 10.1646875 -5.6875 9.3125 C-4.85821592 6.5230899 -3.65700944 4.3860936 -2 2 C-1.34 2 -0.68 2 0 2 C0 1.34 0 0.68 0 0 Z M207 513 C207 513.66 207 514.32 207 515 C206.34 515 205.68 515 205 515 C198.8225464 521.71462348 198.53869915 528.60465238 198.6953125 537.375 C199.06936472 541.8252623 200.04655955 545.01172575 202 549 C202.66 549 203.32 549 204 549 C204.33 549.99 204.66 550.98 205 552 C205.66 552 206.32 552 207 552 C207.2784375 552.86625 207.2784375 552.86625 207.5625 553.75 C210.18333369 557.85217448 214.3762754 559.58543202 218.9375 560.75 C229.04133023 561.57480247 236.81421841 560.2890761 245 554 C250.42156853 548.99359663 253.60653596 543.55294108 254.24609375 536.15234375 C254.4787079 530.2317037 254.4787079 530.2317037 252 525 C251.61500109 523.34450469 251.27206865 521.6777567 251 520 C250.34 520 249.68 520 249 520 C248.773125 519.443125 248.54625 518.88625 248.3125 518.3125 C245.19147519 512.81355152 239.76404463 508.25468154 233.75 506.25 C223.77437585 505.34312508 214.90161064 506.12668116 207 513 Z " fill="#1E4845" transform="translate(235,41)"/>
<path d="M0 0 C3.19244464 2.86501442 4.62063728 5.97685873 6 10 C6.52174805 9.85925049 7.04349609 9.71850098 7.58105469 9.57348633 C15.33650951 7.73815811 23.01896352 7.6616496 30.93896484 7.68432617 C33.23193461 7.68747519 35.52359604 7.66399457 37.81640625 7.63867188 C56.20859707 7.55886316 73.8404716 12.06828787 90 21 C90.86109375 21.47050781 91.7221875 21.94101563 92.609375 22.42578125 C94.74723748 23.60426134 96.8770414 24.79493896 99 26 C99 26.66 99 27.32 99 28 C99.99 28 100.98 28 102 28 C102 28.66 102 29.32 102 30 C102.78375 30.2475 103.5675 30.495 104.375 30.75 C107.32317108 32.15389099 107.9024777 33.00675737 109 36 C109.99 36 110.98 36 112 36 C112 36.66 112 37.32 112 38 C112.99 38.33 113.98 38.66 115 39 C115 39.66 115 40.32 115 41 C115.66 41 116.32 41 117 41 C118.625 42.375 118.625 42.375 120 44 C120 44.66 120 45.32 120 46 C120.66 46 121.32 46 122 46 C123.625 47.375 123.625 47.375 125 49 C125 49.66 125 50.32 125 51 C125.99 51.33 126.98 51.66 128 52 C129.67091076 54.21996669 131.19263687 56.41603107 132.6875 58.75 C133.12594238 59.42377686 133.56438477 60.09755371 134.01611328 60.79174805 C135.35315938 62.8554707 136.67692616 64.92730077 138 67 C138.38978027 67.60086426 138.77956055 68.20172852 139.18115234 68.82080078 C143.23362404 75.06947365 146.78269809 81.14920545 149.30859375 88.171875 C149.85303932 89.99012129 149.85303932 89.99012129 151 91 C153.51708673 91.20299087 156.0317619 91.31912696 158.5546875 91.42578125 C161 92 161 92 162.58422852 93.71411133 C164.17254131 96.27858326 164.63591881 98.17695522 165.09765625 101.1484375 C165.2584668 102.14713867 165.41927734 103.14583984 165.58496094 104.17480469 C165.82134277 105.75890137 165.82134277 105.75890137 166.0625 107.375 C166.23168945 108.4568457 166.40087891 109.53869141 166.57519531 110.65332031 C166.90901455 112.80095508 167.23775836 114.94938585 167.56103516 117.09863281 C167.92338199 119.49358818 168.30370686 121.88381258 168.69921875 124.2734375 C171.06252023 139.19073055 171.06252023 139.19073055 170 146 C166.5647952 148.29013653 165.014669 148.17842973 161 148 C161.02356567 149.5617395 161.02356567 149.5617395 161.04760742 151.1550293 C161.56369539 188.63574827 161.56369539 188.63574827 158.38916016 204.98291016 C157.79145797 208.08091234 157.31080066 211.19722464 156.8125 214.3125 C156.54437592 215.87546719 156.27485064 217.43820166 156 219 C151.93834644 218.31673118 148.28147439 217.09488592 144.4375 215.625 C143.32246094 215.20476562 142.20742188 214.78453125 141.05859375 214.3515625 C136.12407926 212.17104907 136.12407926 212.17104907 134 210 C133.7578125 207.8984375 133.7578125 207.8984375 134.125 205.375 C134.25132812 204.37984375 134.37765625 203.3846875 134.5078125 202.359375 C134.75144531 200.69648438 134.75144531 200.69648438 135 199 C137.16155609 183.69755528 137.61257855 168.43228763 138 153 C137.31292969 153.03480469 136.62585938 153.06960937 135.91796875 153.10546875 C135.01691406 153.13253906 134.11585938 153.15960938 133.1875 153.1875 C132.29417969 153.22230469 131.40085937 153.25710937 130.48046875 153.29296875 C128 153 128 153 126.24169922 151.72729492 C121.82991326 145.59017624 121.92735771 134.47994913 120.875 127.1875 C120.60236328 125.39602539 120.60236328 125.39602539 120.32421875 123.56835938 C118.01638084 107.63039608 118.01638084 107.63039608 119 101 C120.89030786 98.48894748 121.94734662 98.01755113 125 97 C123.87253979 87.95378984 118.81730693 80.57376633 113.1015625 73.65625 C112 72 112 72 112 69 C111.34 69 110.68 69 110 69 C110 68.34 110 67.68 110 67 C109.01 66.67 108.02 66.34 107 66 C102 60.53488372 102 60.53488372 102 58 C101.4225 57.731875 100.845 57.46375 100.25 57.1875 C97.94449957 55.97070811 95.97943808 54.69666121 94 53 C94 52.34 94 51.68 94 51 C93.42765625 50.89300781 92.8553125 50.78601563 92.265625 50.67578125 C89.66787989 49.90093659 87.95660895 48.75514485 85.75 47.1875 C79.52178523 42.91964136 72.97818657 39.86604091 66 37 C64.80375 36.505 63.6075 36.01 62.375 35.5 C60.92320999 34.98130754 59.46403295 34.48305656 58 34 C56.71802734 33.57654297 56.71802734 33.57654297 55.41015625 33.14453125 C44.19171324 30.00454654 29.29719313 28.74191627 18 32 C18.2475 33.0725 18.495 34.145 18.75 35.25 C19 39 19 39 17.30859375 41.06640625 C15.04227219 42.96459436 12.92820512 44.32010627 10.3125 45.6875 C9.35730469 46.1928125 8.40210938 46.698125 7.41796875 47.21875 C5.72607422 48.10046875 5.72607422 48.10046875 4 49 C1.79851699 50.15959506 -0.40141331 51.32208655 -2.60083008 52.4855957 C-4.09037413 53.27282333 -5.58105751 54.05789983 -7.07299805 54.84057617 C-10.04123415 56.40260655 -12.93535346 57.95896905 -15.76953125 59.7578125 C-18.8814938 61.49091949 -21.50652349 61.20549862 -25 61 C-25 60.34 -25 59.68 -25 59 C-26.485 58.505 -26.485 58.505 -28 58 C-29.38671875 56.0390625 -29.38671875 56.0390625 -30.6875 53.625 C-31.12449219 52.83351562 -31.56148438 52.04203125 -32.01171875 51.2265625 C-33 49 -33 49 -33 46 C-39.34416337 49.40124348 -45.64750518 52.84533815 -51.76171875 56.6484375 C-54 58 -54 58 -55.95703125 58.9140625 C-57.88672988 59.78044796 -57.88672988 59.78044796 -60 62 C-60.28788163 64.55993206 -60.18229029 66.96140495 -60.02734375 69.53125 C-59.97665529 74.10769399 -62.1080796 76.96871704 -65 80.3125 C-69.34406674 83.97780631 -74.61894643 83.31958103 -80 83 C-83.88155579 82.13743205 -86.56667596 80.27523789 -89.05078125 77.109375 C-91.15090993 72.44242237 -90.74592697 66.96663041 -90 62 C-88.59375 59.09765625 -88.59375 59.09765625 -87 57 C-86.34 57 -85.68 57 -85 57 C-85 56.34 -85 55.68 -85 55 C-80.69988228 52.85814747 -77.49127791 52.98568352 -72.75 53.3125 C-67.71795343 53.48396413 -64.24500496 53.18245881 -60.25 49.875 C-59.57066406 49.23691406 -58.89132812 48.59882812 -58.19140625 47.94140625 C-54.97496113 45.09189961 -51.30333424 43.3712222 -47.48046875 41.45703125 C-44.87431469 39.92617225 -43.03745927 38.21793352 -41 36 C-42.30155006 31.92035719 -42.30155006 31.92035719 -44 28 C-44.47217679 24.85215473 -44.72532522 23.00896634 -44 20 C-38.94000222 13.42533184 -28.2408351 9.73099254 -20.97363281 6.0234375 C-19.29540843 5.15318557 -17.64087982 4.23748062 -15.9921875 3.3125 C-10.79456201 0.44484456 -5.97944727 -1.52848857 0 0 Z " fill="#1E4744" transform="translate(452,43)"/>
<path d="M0 0 C8.59671397 6.53237147 8.59671397 6.53237147 9.7578125 10.7578125 C9.87769531 11.86769531 9.87769531 11.86769531 10 13 C10.66 13 11.32 13 12 13 C15.43440066 24.3764522 14.98524283 36.11591526 9.55859375 46.8515625 C6.01168166 52.69450353 1.79131134 57.74208849 -2.88671875 62.7109375 C-5.02852589 64.94778184 -5.02852589 64.94778184 -6.7734375 67.3984375 C-9.77601547 70.90671281 -13.24887726 73.49529905 -16.9375 76.25 C-17.68878174 76.81485107 -18.44006348 77.37970215 -19.21411133 77.96166992 C-21.46999835 79.64945725 -23.73453168 81.32510679 -26 83 C-26.64904297 83.48742676 -27.29808594 83.97485352 -27.96679688 84.47705078 C-29.69573272 85.77190749 -31.43787049 87.04580461 -33.1875 88.3125 C-34.17105469 89.03050781 -35.15460938 89.74851562 -36.16796875 90.48828125 C-39.52406297 92.2797412 -41.23637782 92.37015877 -45 92 C-47.5612793 90.56298828 -47.5612793 90.56298828 -50.07421875 88.5703125 C-50.98880859 87.85746094 -51.90339844 87.14460938 -52.84570312 86.41015625 C-53.78349609 85.65605469 -54.72128906 84.90195312 -55.6875 84.125 C-57.56614343 82.64810313 -59.44503851 81.17152628 -61.32421875 79.6953125 C-62.15010498 79.03547363 -62.97599121 78.37563477 -63.8269043 77.69580078 C-65.49762146 76.392037 -67.2367019 75.17553207 -69 74 C-69 73.34 -69 72.68 -69 72 C-69.66 72 -70.32 72 -71 72 C-71 71.34 -71 70.68 -71 70 C-71.87205078 69.62875 -71.87205078 69.62875 -72.76171875 69.25 C-83.04988202 63.50442889 -90.58386231 49.47472859 -94.1171875 38.72265625 C-96.48110329 28.75446269 -96.11597784 18.99531203 -91 10 C-87.14680351 3.92829645 -81.808707 0.31701643 -75 -2 C-66.37589618 -3.45449111 -57.58110221 -3.06276299 -49.95703125 1.49609375 C-46.48623855 4.16326977 -43.97362386 7.05275227 -42 11 C-38.63366507 9.5783312 -36.84368618 7.89159232 -34.5625 5.0625 C-26.5535953 -4.38390041 -10.64600392 -6.81344251 0 0 Z " fill="#90C4D9" transform="translate(381,336)"/>
<path d="M0 0 C5.77143428 2.22050312 9.02185114 5.57758209 12 11 C12.49609375 14.69140625 12.49609375 14.69140625 12.4375 18.5625 C12.43621094 19.84253906 12.43492187 21.12257813 12.43359375 22.44140625 C11.83524333 27.35219213 10.21851944 29.87767947 6.625 33.1875 C0.76843887 37.23131602 -5.01382293 38.11544004 -12 37 C-17.25726391 34.46743101 -21.67067841 30.33802865 -24 25 C-24.7120251 19.19254528 -24.8617088 13.97474934 -22.5 8.5625 C-21.675 7.716875 -20.85 6.87125 -20 6 C-19.46375 5.44441406 -18.9275 4.88882813 -18.375 4.31640625 C-12.81190813 -0.70196621 -7.26037812 -1.29789017 0 0 Z " fill="#85A877" transform="translate(467,556)"/>
<path d="M0 0 C0.33 0 0.66 0 1 0 C1 4.29 1 8.58 1 13 C0.67 13 0.34 13 0 13 C0 8.71 0 4.42 0 0 Z " fill="#1D4744" transform="translate(549,349)"/>
<path d="M0 0 C1.32 0.33 2.64 0.66 4 1 C3.01 2.32 2.02 3.64 1 5 C0.67 3.35 0.34 1.7 0 0 Z " fill="#1B4D4A" transform="translate(686,296)"/>
<path d="M0 0 C0.99 0.33 1.98 0.66 3 1 C2.01 1 1.02 1 0 1 C0 0.67 0 0.34 0 0 Z " fill="#001F1F" transform="translate(593,274)"/>
<path d="M0 0 C2 1 2 1 2 1 Z " fill="#126363" transform="translate(596,276)"/>
<path d="M0 0 C2 1 2 1 2 1 Z " fill="#1A5042" transform="translate(519,267)"/>
<path d="" fill="#007F7F" transform="translate(0,0)"/>
<path d="" fill="#000000" transform="translate(0,0)"/>
<path d="" fill="#333333" transform="translate(0,0)"/>
<path d="" fill="#000000" transform="translate(0,0)"/>
<path d="" fill="#003F3F" transform="translate(0,0)"/>
</svg>
